<?xml version="1.0" encoding="UTF-8" standalone="no"?>
<?xml-stylesheet href="ct.css" type="text/css"?>
<!DOCTYPE svg PUBLIC "-//W3C//DTD SVG 1.1//EN"
 "http://www.w3.org/Graphics/SVG/1.1/DTD/svg11.dtd">
<!-- Generated by graphviz version 2.38.0 (20140413.2041)
 -->
<!-- Title: G Pages: 1 -->
<svg width="152pt" height="131pt"
 viewBox="0.00 0.00 152.00 131.00" xmlns="http://www.w3.org/2000/svg" xmlns:xlink="http://www.w3.org/1999/xlink">
<g id="graph0" class="graph" transform="scale(1 1) rotate(0) translate(4 127)">
<title>G</title>
<polygon fill="white" stroke="none" points="-4,4 -4,-127 148,-127 148,4 -4,4"/>
<!-- a -->
<g id="node1" class="node"><title>a</title>
<ellipse fill="white" stroke="black" cx="72" cy="-105" rx="27" ry="18"/>
<text text-anchor="middle" x="72" y="-101.3" font-family="Times New Roman,serif" font-size="14.00">a</text>
</g>
<!-- b -->
<g id="node2" class="node"><title>b</title>
<ellipse fill="white" stroke="black" cx="27" cy="-18" rx="27" ry="18"/>
<text text-anchor="middle" x="27" y="-14.3" font-family="Times New Roman,serif" font-size="14.00">b</text>
</g>
<!-- a&#45;&gt;b -->
<g id="edge1" class="edge"><title>a&#45;&gt;b</title>
<path fill="none" stroke="black" d="M63.3235,-87.6111C56.8492,-75.3817 47.8815,-58.4429 40.4767,-44.456"/>
<polygon fill="black" stroke="black" points="43.422,-42.5388 35.6498,-35.3385 37.2355,-45.8141 43.422,-42.5388"/>
<text text-anchor="middle" x="56.5" y="-57.8" font-family="Times New Roman,serif" font-size="14.00">h</text>
</g>
<!-- c -->
<g id="node3" class="node"><title>c</title>
<ellipse fill="white" stroke="black" cx="117" cy="-18" rx="27" ry="18"/>
<text text-anchor="middle" x="117" y="-14.3" font-family="Times New Roman,serif" font-size="14.00">c</text>
</g>
<!-- a&#45;&gt;c -->
<g id="edge3" class="edge"><title>a&#45;&gt;c</title>
<path fill="none" stroke="red" d="M80.6765,-87.6111C87.1508,-75.3817 96.1185,-58.4429 103.523,-44.456"/>
<polygon fill="red" stroke="red" points="106.765,-45.8141 108.35,-35.3385 100.578,-42.5388 106.765,-45.8141"/>
<text text-anchor="middle" x="107" y="-57.8" font-family="Times New Roman,serif" font-size="14.00">g.h</text>
</g>
<!-- b&#45;&gt;c -->
<g id="edge2" class="edge"><title>b&#45;&gt;c</title>
<path fill="none" stroke="black" d="M54.003,-18C62.0277,-18 70.9665,-18 79.5309,-18"/>
<polygon fill="black" stroke="black" points="79.7051,-21.5001 89.705,-18 79.705,-14.5001 79.7051,-21.5001"/>
<text text-anchor="middle" x="72" y="-24.8" font-family="Times New Roman,serif" font-size="14.00">g</text>
</g>
</g>
</svg>
