<?xml version="1.0" encoding="UTF-8" standalone="no"?>
<?xml-stylesheet href="ct.css" type="text/css"?>
<!DOCTYPE svg PUBLIC "-//W3C//DTD SVG 1.1//EN"
 "http://www.w3.org/Graphics/SVG/1.1/DTD/svg11.dtd">
<!-- Generated by graphviz version 2.38.0 (20140413.2041)
 -->
<!-- Title: G Pages: 1 -->
<svg width="91pt" height="117pt"
 viewBox="0.00 0.00 91.00 117.00" xmlns="http://www.w3.org/2000/svg" xmlns:xlink="http://www.w3.org/1999/xlink">
<g id="graph0" class="graph" transform="scale(1 1) rotate(0) translate(4 113)">
<title>G</title>
<polygon fill="white" stroke="none" points="-4,4 -4,-113 87,-113 87,4 -4,4"/>
<!-- A -->
<g id="node1" class="node"><title>A</title>
<ellipse fill="white" stroke="black" cx="27" cy="-91" rx="27" ry="18"/>
<text text-anchor="middle" x="27" y="-87.3" font-family="Times New Roman,serif" font-size="14.00">A</text>
</g>
<!-- A&#45;&gt;A -->
<g id="edge2" class="edge"><title>A&#45;&gt;A</title>
<path fill="none" stroke="red" d="M52.4435,-97.6907C63.0278,-98.1521 72,-95.9219 72,-91 72,-87.77 68.136,-85.6992 62.4881,-84.7876"/>
<polygon fill="red" stroke="red" points="62.5987,-81.289 52.4435,-84.3093 62.2656,-88.2811 62.5987,-81.289"/>
<text text-anchor="middle" x="77.5" y="-87.3" font-family="Times New Roman,serif" font-size="14.00">id</text>
</g>
<!-- B -->
<g id="node2" class="node"><title>B</title>
<ellipse fill="white" stroke="black" cx="27" cy="-18" rx="27" ry="18"/>
<text text-anchor="middle" x="27" y="-14.3" font-family="Times New Roman,serif" font-size="14.00">B</text>
</g>
<!-- A&#45;&gt;B -->
<g id="edge1" class="edge"><title>A&#45;&gt;B</title>
<path fill="none" stroke="black" d="M27,-72.8129C27,-64.7895 27,-55.0475 27,-46.0691"/>
<polygon fill="black" stroke="black" points="30.5001,-46.0288 27,-36.0288 23.5001,-46.0289 30.5001,-46.0288"/>
</g>
<!-- B&#45;&gt;B -->
<g id="edge3" class="edge"><title>B&#45;&gt;B</title>
<path fill="none" stroke="red" d="M52.4435,-24.6907C63.0278,-25.1521 72,-22.9219 72,-18 72,-14.77 68.136,-12.6992 62.4881,-11.7876"/>
<polygon fill="red" stroke="red" points="62.5987,-8.28904 52.4435,-11.3093 62.2656,-15.2811 62.5987,-8.28904"/>
<text text-anchor="middle" x="77.5" y="-14.3" font-family="Times New Roman,serif" font-size="14.00">id</text>
</g>
</g>
</svg>
